HIERARCHY
ROOT Hips
{
  OFFSET 52.4318 86.5627 -2.42574
  CHANNELS 6 Xposition Yposition Zposition Zrotation Xrotation Yrotation
  JOINT spine
  {
    OFFSET 0 6.84637 0.3937
    CHANNELS 3 Zrotation Xrotation Yrotation
    JOINT spine1
    {
      OFFSET 0 9.49621 0
      CHANNELS 3 Zrotation Xrotation Yrotation
      JOINT spine2
      {
        OFFSET 0 9.09909 0
        CHANNELS 3 Zrotation Xrotation Yrotation
        JOINT Neck
        {
          OFFSET 0 23.3612 1.11378
          CHANNELS 3 Zrotation Xrotation Yrotation
          JOINT Head
          {
            OFFSET 0 7.05802 0
            CHANNELS 3 Zrotation Xrotation Yrotation
            End Site
            {
              OFFSET 0 17.0844 -5.63419
            }
          }
        }
        JOINT RightShoulder
        {
          OFFSET -3.83136 9.82631 -0.533491
          CHANNELS 3 Zrotation Xrotation Yrotation
          JOINT RightArm
          {
            OFFSET 0 12.8881 0
            CHANNELS 3 Zrotation Xrotation Yrotation
            JOINT RightArmRoll
            {
              OFFSET 0 6.50617 0
              CHANNELS 3 Zrotation Xrotation Yrotation
              JOINT RightForeArm
              {
                OFFSET 0 18.9501 0
                CHANNELS 3 Zrotation Xrotation Yrotation
                JOINT RightForeArmRoll
                {
                  OFFSET 0 7.30092 0
                  CHANNELS 3 Zrotation Xrotation Yrotation
                  JOINT RightHand
                  {
                    OFFSET 0 14.6514 0
                    CHANNELS 3 Zrotation Xrotation Yrotation
                    End Site
                    {
                      OFFSET 0 0 0
                    }
                  }
                }
              }
            }
          }
        }
        JOINT LeftShoulder
        {
          OFFSET 3.83136 9.82631 -0.533491
          CHANNELS 3 Zrotation Xrotation Yrotation
          JOINT LeftArm
          {
            OFFSET 0 12.8881 0
            CHANNELS 3 Zrotation Xrotation Yrotation
            JOINT LeftArmRoll
            {
              OFFSET 0 6.50617 0
              CHANNELS 3 Zrotation Xrotation Yrotation
              JOINT LeftForeArm
              {
                OFFSET 0 18.9501 0
                CHANNELS 3 Zrotation Xrotation Yrotation
                JOINT LeftForeArmRoll
                {
                  OFFSET 0 7.30092 0
                  CHANNELS 3 Zrotation Xrotation Yrotation
                  JOINT LeftHand
                  {
                    OFFSET 0 14.6514 0
                    CHANNELS 3 Zrotation Xrotation Yrotation
                    End Site
                    {
                      OFFSET 0 0 0
                    }
                  }
                }
              }
            }
          }
        }
      }
    }
  }
  JOINT RightUpLeg
  {
    OFFSET -6.06837 -1.11278 -0.933477
    CHANNELS 3 Zrotation Xrotation Yrotation
    JOINT RightUpLegRoll
    {
      OFFSET 0 17.1796 0
      CHANNELS 3 Zrotation Xrotation Yrotation
      JOINT RightLeg
      {
        OFFSET 0 -21.2743 0
        CHANNELS 3 Zrotation Xrotation Yrotation
        JOINT RightLegRoll
        {
          OFFSET 0 21.3439 0
          CHANNELS 3 Zrotation Xrotation Yrotation
          JOINT RightFoot
          {
            OFFSET 0 17.7652 0
            CHANNELS 3 Zrotation Xrotation Yrotation
            JOINT RightToeBase
            {
              OFFSET 0 14.8508 0
              CHANNELS 3 Zrotation Xrotation Yrotation
              End Site
              {
                OFFSET 0.0062947 7.19214 -0.829004
              }
            }
          }
        }
      }
    }
  }
  JOINT LeftUpLeg
  {
    OFFSET 6.06837 -1.11278 -0.933477
    CHANNELS 3 Zrotation Xrotation Yrotation
    JOINT LeftUpLegRoll
    {
      OFFSET 0 17.1797 0
      CHANNELS 3 Zrotation Xrotation Yrotation
      JOINT LeftLeg
      {
        OFFSET 0 21.2742 0
        CHANNELS 3 Zrotation Xrotation Yrotation
        JOINT LeftLegRoll
        {
          OFFSET 0 21.5412 0
          CHANNELS 3 Zrotation Xrotation Yrotation
          JOINT LeftFoot
          {
            OFFSET 0 17.5679 0
            CHANNELS 3 Zrotation Xrotation Yrotation
            JOINT LeftToeBase
            {
              OFFSET 0 14.8508 0
              CHANNELS 3 Zrotation Xrotation Yrotation
              End Site
              {
                OFFSET -0.0282102 7.19213 -0.829005
              }
            }
          }
        }
      }
    }
  }
}
MOTION
Frames: 10
Frame Time: 0.00208333
51.426 92.8149 0.791056 0.329206 10.0109 -0.331738 1.25535 -3.01686 0.0595267 2.50795 -2.03189 0.0221512 2.50705 -0.387722 -0.019803 -26.3681 -19.0795 -4.97736 26.0132 17.1772 -7.10394 34.189 -6.1176 -2.28975 115.92 -0.139587 -48.4409 -1.69394e-005 -1.41994e-006 -4.89893e-006 -54.9556 68.1996 46.5079 -2.12399e-007 -2.70325e-006 -3.00487 8.02977 -4.95134 0.697688 -68.4414 -14.0629 8.37564 -78.618 -0.0944344 26.7261 -1.6458e-005 -4.39558e-006 2.91775e-006 69.6637 80.1753 -60.1689 4.9848e-006 4.83851e-007 2.99999 -8.02949 -4.95142 -0.697704 176.809 16.5461 -0.103028 180 7.01592e-015 179.143 175.806 13.568 -179.795 1.64292e-007 1.71522e-006 0.18913 -16.3289 65.0795 17.4159 8.13649 25.2327 -3.48774 -177.678 17.9418 0.0567742 4.54188e-006 -4.6773e-006 -0.849045 -3.19952 -18.6819 -0.194183 -2.57903e-006 -9.23796e-006 -0.306887 22.255 71.9857 -23.5475 -8.13723 25.2326 3.48805 
51.4154 92.7934 0.779981 0.311151 9.96199 -0.346694 1.25624 -3.01141 0.0752502 2.51041 -2.02065 0.0534212 2.50913 -0.376489 0.0114214 -26.2099 -18.7956 -4.9151 25.8401 17.0095 -7.06178 34.4114 -6.15088 -2.33897 115.71 -0.282192 -48.2832 -1.69394e-005 -1.41994e-006 -4.89893e-006 -54.4357 68.1663 46.1028 -2.12399e-007 -2.70325e-006 -3.00488 8.02977 -4.95134 0.697688 -68.3729 -14.0478 8.37059 -78.6893 -0.0937046 26.6019 -1.6458e-005 -4.39558e-006 2.91775e-006 67.9459 80.2204 -58.6534 4.9848e-006 4.83851e-007 2.99999 -8.02949 -4.95142 -0.697704 176.848 16.6256 -0.124446 180 7.01591e-015 179.135 175.857 13.9467 -179.795 1.64292e-007 1.71522e-006 0.193105 -16.364 65.1437 17.4574 8.13649 25.2327 -3.48774 -177.65 17.99 -0.0130148 4.54188e-006 -4.6773e-006 -0.852159 -3.22936 -18.9723 -0.201955 -2.57903e-006 -9.23796e-006 -0.309914 22.2765 72.0031 -23.5693 -8.1372 25.2326 3.48804 
51.5366 92.7742 0.825824 0.29448 9.91185 -0.360338 1.25763 -3.00605 0.0904681 2.51382 -2.00959 0.0836421 2.51219 -0.365435 0.0415809 -26.064 -18.5097 -4.85336 25.678 16.8425 -7.02154 34.6211 -6.18349 -2.38647 115.514 -0.420787 -48.122 -1.69394e-005 -1.41994e-006 -4.89893e-006 -53.8837 68.1313 45.6736 -2.12399e-007 -2.70325e-006 -3.00488 8.02977 -4.95134 0.697688 -68.316 -14.0311 8.36426 -78.7597 -0.0910751 26.4631 -1.6458e-005 -4.39558e-006 2.91775e-006 66.1416 80.2599 -57.0599 4.9848e-006 4.83851e-007 2.99999 -8.02949 -4.95142 -0.697704 176.882 16.6936 -0.140755 180 7.0159e-015 179.128 175.902 14.3033 -179.794 1.64292e-007 1.71522e-006 0.196962 -16.3975 65.2043 17.4969 8.13649 25.2327 -3.48774 -177.625 18.0341 -0.0802388 4.54188e-006 -4.6773e-006 -0.855347 -3.25915 -19.2585 -0.209797 -2.57903e-006 -9.23796e-006 -0.312907 22.3 72.022 -23.593 -8.13717 25.2326 3.48803 
51.4837 92.7322 0.788127 0.27954 9.86052 -0.37252 1.25957 -3.0008 0.104947 2.51831 -1.99878 0.112343 2.51634 -0.35463 0.070203 -25.9337 -18.2234 -4.79269 25.5303 16.6775 -6.98392 34.8143 -6.21509 -2.43161 115.335 -0.554531 -47.9563 -1.69394e-005 -1.41994e-006 -4.89893e-006 -53.2951 68.0948 45.217 -2.12399e-007 -2.70325e-006 -3.00489 8.02977 -4.95134 0.697688 -68.2733 -14.0129 8.35653 -78.8266 -0.0872231 26.3071 -1.6458e-005 -4.39558e-006 2.91775e-006 64.2552 80.2933 -55.3928 4.9848e-006 4.83851e-007 2.99999 -8.02949 -4.95142 -0.697704 176.912 16.7477 -0.151027 180 7.01588e-015 179.121 175.941 14.6323 -179.793 1.64292e-007 1.71522e-006 0.200658 -16.4284 65.2598 17.5332 8.13649 25.2327 -3.48774 -177.605 18.0735 -0.144065 4.54188e-006 -4.6773e-006 -0.858608 -3.28869 -19.5398 -0.217686 -2.57903e-006 -9.23796e-006 -0.315869 22.326 72.043 -23.6192 -8.13714 25.2326 3.48802 
51.4368 92.6776 0.795317 0.266678 9.80808 -0.383087 1.26213 -2.99571 0.118454 2.52398 -1.98829 0.139054 2.5217 -0.344146 0.096815 -25.8225 -17.9382 -4.73364 25.4005 16.5155 -6.94963 34.9871 -6.24535 -2.47375 115.177 -0.682577 -47.785 -1.69394e-005 -1.41994e-006 -4.89893e-006 -52.6652 68.0573 44.7297 -2.12399e-007 -2.70325e-006 -3.00489 8.02977 -4.95134 0.697688 -68.2476 -13.9931 8.34729 -78.8874 -0.0828276 26.1311 -1.6458e-005 -4.39558e-006 2.91775e-006 62.2917 80.3199 -53.6568 4.9848e-006 4.83851e-007 2.99999 -8.02949 -4.95142 -0.697704 176.936 16.7853 -0.154335 180 7.01587e-015 179.114 175.973 14.9284 -179.792 1.64292e-007 1.71522e-006 0.204149 -16.4557 65.3086 17.5653 8.13649 25.2327 -3.48774 -177.589 18.1078 -0.203661 4.54188e-006 -4.6773e-006 -0.861938 -3.31781 -19.8153 -0.225601 -2.57903e-006 -9.23796e-006 -0.318805 22.3551 72.0664 -23.6485 -8.13711 25.2326 3.488 
51.4367 92.72 0.762289 0.256243 9.7546 -0.391891 1.26536 -2.9908 0.130756 2.53095 -1.9782 0.163302 2.52838 -0.334054 0.120944 -25.734 -17.6556 -4.67676 25.292 16.3578 -6.91939 35.1356 -6.27393 -2.51225 115.043 -0.804078 -47.6069 -1.69394e-005 -1.41994e-006 -4.89893e-006 -51.9896 68.0189 44.2084 -2.12399e-007 -2.70325e-006 -3.00489 8.02977 -4.95134 0.697688 -68.2416 -13.9718 8.33642 -78.9396 -0.0785711 25.9324 -1.6458e-005 -4.39558e-006 2.91775e-006 60.2563 80.3394 -51.8571 4.9848e-006 4.83851e-007 2.99999 -8.02949 -4.95142 -0.697704 176.954 16.8037 -0.149755 180 7.01586e-015 179.108 175.997 15.1858 -179.79 1.64292e-007 1.71522e-006 0.207391 -16.4784 65.3492 17.5921 8.13649 25.2327 -3.48774 -177.579 18.1364 -0.258191 4.54188e-006 -4.6773e-006 -0.865338 -3.3463 -20.0842 -0.233518 -2.57903e-006 -9.23796e-006 -0.321719 22.3877 72.0927 -23.6815 -8.13708 25.2326 3.48799 
51.4979 92.6538 0.75602 0.248559 9.70045 -0.398292 1.26933 -2.98623 0.142111 2.53933 -1.96881 0.185609 2.5365 -0.32468 0.143108 -25.6668 -17.3701 -4.62 25.2024 16.202 -6.89195 35.2611 -6.30219 -2.54853 114.932 -0.920579 -47.4248 -1.69394e-005 -1.41994e-006 -4.89893e-006 -51.2673 67.977 43.652 -2.12399e-007 -2.70325e-006 -3.0049 8.02977 -4.95134 0.697688 -68.2541 -13.9486 8.32384 -78.9861 -0.0715257 25.712 -1.6458e-005 -4.39558e-006 2.91775e-006 58.1245 80.352 -49.972 4.9848e-006 4.83851e-007 2.99999 -8.02949 -4.95142 -0.697704 176.964 16.8071 -0.138611 180 7.01585e-015 179.103 176.014 15.4103 -179.789 1.64292e-007 1.71522e-006 0.210427 -16.498 65.3837 17.6149 8.13575 25.2216 -3.4849 -177.575 18.1635 -0.30808 4.54188e-006 -4.6773e-006 -0.868894 -3.37472 -20.3536 -0.241629 -2.57903e-006 -9.23796e-006 -0.324692 22.4248 72.1224 -23.7189 -8.13706 25.2326 3.48798 
51.4747 92.6143 0.746473 0.243471 9.64579 -0.401996 1.27399 -2.9821 0.152979 2.54908 -1.96031 0.206897 2.54601 -0.31618 0.164231 -25.6159 -17.0758 -4.56125 25.126 16.0451 -6.86559 35.3688 -6.33149 -2.58437 114.84 -1.03415 -47.2421 -1.69394e-005 -1.41994e-006 -4.89893e-006 -50.5031 67.9288 43.0637 -2.12399e-007 -2.70325e-006 -3.0049 8.02977 -4.95134 0.697688 -68.2813 -13.9236 8.30962 -79.0322 -0.0587254 25.474 -1.6458e-005 -4.39558e-006 2.91775e-006 55.875 80.3566 -47.9825 4.9848e-006 4.83851e-007 2.99999 -8.02949 -4.95142 -0.697704 176.97 16.8014 -0.122943 180 7.01584e-015 179.098 176.027 15.6125 -179.788 1.64292e-007 1.71522e-006 0.213339 -16.5167 65.4157 17.6363 8.13372 25.1913 -3.47715 -177.577 18.193 -0.354598 4.54188e-006 -4.6773e-006 -0.872671 -3.40368 -20.6297 -0.250104 -2.57903e-006 -9.23796e-006 -0.32778 22.4663 72.1555 -23.7606 -8.13703 25.2326 3.48797 
51.5213 92.5614 0.755955 0.240605 9.59044 -0.403371 1.27928 -2.97831 0.163428 2.56008 -1.95249 0.227306 2.55676 -0.308372 0.184453 -25.5792 -16.7738 -4.50093 25.0613 15.8872 -6.84026 35.4612 -6.36154 -2.61967 114.765 -1.14473 -47.0583 -1.69394e-005 -1.41993e-006 -4.89893e-006 -49.702 67.8744 42.4474 -2.12399e-007 -2.70325e-006 -3.00491 8.02977 -4.95134 0.697688 -68.3217 -13.8967 8.29391 -79.0784 -0.0407995 25.2198 -1.6458e-005 -4.39558e-006 2.91775e-006 53.5193 80.3507 -45.8987 4.9848e-006 4.83851e-007 2.99999 -8.02949 -4.95142 -0.697704 176.97 16.7867 -0.102896 180 7.01583e-015 179.094 176.036 15.7941 -179.787 1.64292e-007 1.71522e-006 0.216142 -16.5346 65.4455 17.6562 8.13072 25.1462 -3.46563 -177.583 18.2234 -0.398178 4.54188e-006 -4.6773e-006 -0.876636 -3.43311 -20.9103 -0.258886 -2.57903e-006 -9.23796e-006 -0.330946 22.5115 72.1914 -23.8061 -8.137 25.2326 3.48796 
51.5001 92.4802 0.717068 0.239585 9.53418 -0.402786 1.28515 -2.97476 0.173525 2.5722 -1.94518 0.246971 2.56865 -0.301072 0.203914 -25.5548 -16.4654 -4.43947 25.0065 15.7284 -6.81592 35.5405 -6.39205 -2.65433 114.704 -1.25226 -46.8731 -1.69394e-005 -1.41994e-006 -4.89893e-006 -48.8685 67.8141 41.8067 -2.12399e-007 -2.70325e-006 -3.00491 8.02977 -4.95134 0.697688 -68.3736 -13.8682 8.2768 -79.1254 -0.0183802 24.951 -1.6458e-005 -4.39558e-006 2.91775e-006 51.071 80.3317 -43.733 4.9848e-006 4.83851e-007 2.99999 -8.02949 -4.95142 -0.697704 176.967 16.7634 -0.0786179 180 7.01582e-015 179.089 176.041 15.9568 -179.786 1.64292e-007 1.71522e-006 0.218851 -16.5517 65.4733 17.6748 8.12705 25.0908 -3.45148 -177.594 18.2535 -0.439252 4.54188e-006 -4.6773e-006 -0.880755 -3.46293 -21.1931 -0.267918 -2.57903e-006 -9.23796e-006 -0.334155 22.5599 72.2295 -23.8545 -8.13697 25.2326 3.48794 
